<?xml version="1.0" encoding="UTF-8"?>
<svg id="Layer_1" xmlns="http://www.w3.org/2000/svg" version="1.1" viewBox="0 0 327.48 272.52">
  <!-- Generator: Adobe Illustrator 30.0.0, SVG Export Plug-In . SVG Version: 2.1.1 Build 123)  -->
  <defs>
    <style>
      .st0 {
        fill: #fff;
      }

      .st1 {
        fill: #606b3b;
      }

      .st2 {
        fill: #231f20;
      }
    </style>
  </defs>
  <g>
    <path class="st1" d="M204.9,158.57c-23.79,0-43.14-18.62-43.14-41.51,0-9.4,6.9-24.98,20.5-46.32,9.96-15.63,20.06-28.83,20.16-28.96l2.48-3.24,2.49,3.24c.1.13,10.2,13.33,20.16,28.96,13.6,21.33,20.5,36.92,20.5,46.32,0,22.89-19.35,41.51-43.15,41.51Z"/>
    <path class="st0" d="M164.89,117.06c0,21.2,17.92,38.38,40.01,38.38s40.01-17.18,40.01-38.38-40.01-73.37-40.01-73.37c0,0-40.01,52.17-40.01,73.37ZM237.96,117.37v.04c.03,21.47-22.89,36.73-43.47,29.86-1.76-.55-1.48-.87.2-1.23,21.41-3.66,28.29-21.99,28.12-33.43-.41-10.17-9.62-23.92-14.66-31.82-1.62-2.42-2.77-4.06-3.02-4.38-.03-.03-.05-.04-.07-.04-.41.13-.4,3.25-.45,3.66-.18,1.48-.44,2.95-.78,4.4-.69,2.9-1.72,5.72-3.06,8.38-2.02,4-4.75,7.66-6.24,11.88-1.87,5.29-1.63,11.3.66,16.42.87,1.96,2.08,3.83,3.81,5.09.59.43,1.75,1.32,2.49,1.36.7.03,1.31-.71,1.77-1.16,5.48-5.41,7.86-14.25,8.7-21.21.12-.94.11-1.59.24-1.48,1.78,4.17,2.25,12.3-.46,20.52-1.52,4.36-4.33,8.47-8.53,10.92-7.31,4.41-17.93,5.29-23.85,1.84-4.45-4.25-7.19-11.99-7.5-18.26-.21-15.18,17.15-40.86,31.68-62.08.93-1.21,1.76-1.25,2.61-.14,10.89,15.61,31.2,45.57,31.81,60.85Z"/>
  </g>
  <path class="st1" d="M148,75.65h-29.47v-8.99c0-4.2-.38-6.87-1.13-8.02-.75-1.15-2.01-1.72-3.77-1.72-1.91,0-3.35.78-4.33,2.33-.98,1.55-1.47,3.9-1.47,7.05,0,4.05.55,7.1,1.65,9.15,1.05,2.05,4.04,4.52,8.97,7.42,14.12,8.33,23.02,15.17,26.69,20.52,3.67,5.35,5.5,13.96,5.5,25.85,0,8.64-1.02,15.01-3.05,19.11-2.03,4.1-5.97,7.53-11.79,10.3-5.83,2.77-12.61,4.16-20.35,4.16-8.49,0-15.74-1.6-21.74-4.8-6-3.2-9.94-7.27-11.79-12.21-1.86-4.95-2.79-11.96-2.79-21.05v-7.94h29.47v14.76c0,4.55.41,7.47,1.24,8.77.83,1.3,2.3,1.95,4.41,1.95s3.68-.82,4.71-2.47c1.03-1.65,1.54-4.09,1.54-7.34,0-7.14-.98-11.81-2.94-14.01-2.01-2.2-6.96-5.87-14.85-11.01-7.89-5.19-13.11-8.96-15.67-11.31-2.56-2.35-4.69-5.59-6.37-9.74-1.68-4.15-2.52-9.44-2.52-15.88,0-9.29,1.19-16.08,3.58-20.38,2.39-4.3,6.24-7.65,11.57-10.08,5.32-2.42,11.76-3.63,19.29-3.63,8.24,0,15.26,1.32,21.06,3.97,5.8,2.65,9.65,5.98,11.53,10,1.88,4.02,2.83,10.85,2.83,20.49v4.79Z"/>
  <path class="st2" d="M62.67,173.52v37.68h-9.8v-15.83h-2.93v15.83h-9.8v-37.68h9.8v13.48h2.93v-13.48h9.8Z"/>
  <path class="st2" d="M83.54,173.52l5.6,37.68h-10.01l-.53-6.77h-3.5l-.59,6.77h-10.13l5-37.68h14.16ZM78.34,197.74c-.5-4.27-.99-9.54-1.49-15.83-1,7.21-1.63,12.49-1.88,15.83h3.37Z"/>
  <path class="st2" d="M113.68,189.92h-9.8v-6.55c0-1.9-.1-3.09-.31-3.56-.21-.47-.67-.71-1.38-.71-.81,0-1.32.29-1.54.86-.22.57-.33,1.82-.33,3.72v17.5c0,1.83.11,3.03.33,3.58.22.56.71.84,1.47.84s1.21-.28,1.43-.84c.22-.56.34-1.87.34-3.94v-4.74h9.8v1.47c0,3.9-.28,6.67-.83,8.3-.55,1.63-1.77,3.06-3.65,4.29-1.89,1.23-4.21,1.84-6.97,1.84s-5.24-.52-7.1-1.56c-1.86-1.04-3.1-2.48-3.7-4.32-.61-1.84-.91-4.6-.91-8.3v-11.01c0-2.71.09-4.75.28-6.11.19-1.36.74-2.66,1.66-3.92.92-1.26,2.2-2.25,3.84-2.97,1.64-.72,3.52-1.08,5.64-1.08,2.89,0,5.27.56,7.14,1.67,1.88,1.12,3.11,2.51,3.7,4.17.59,1.67.88,4.26.88,7.77v3.58Z"/>
  <path class="st2" d="M140.55,173.52l-5.62,17.01,6.16,20.67h-10.12l-3.97-16.15v16.15h-9.8v-37.68h9.8v14.64l4.36-14.64h9.19Z"/>
  <path class="st2" d="M160.67,173.52l5.6,37.68h-10.01l-.53-6.77h-3.5l-.59,6.77h-10.13l5-37.68h14.16ZM155.47,197.74c-.5-4.27-.99-9.54-1.49-15.83-1,7.21-1.63,12.49-1.88,15.83h3.37Z"/>
  <path class="st2" d="M185.04,173.52v7.54h-5.82v30.14h-9.8v-30.14h-5.8v-7.54h21.41Z"/>
  <path class="st2" d="M209.8,173.52v37.68h-9.8v-15.83h-2.93v15.83h-9.8v-37.68h9.8v13.48h2.93v-13.48h9.8Z"/>
  <path class="st2" d="M236.12,195.58c0,3.79-.09,6.47-.27,8.04-.18,1.58-.74,3.01-1.68,4.32-.94,1.3-2.21,2.3-3.81,3-1.6.7-3.46,1.05-5.59,1.05s-3.83-.33-5.43-.99c-1.61-.66-2.9-1.65-3.88-2.97-.98-1.32-1.56-2.75-1.75-4.31-.19-1.55-.28-4.27-.28-8.15v-6.45c0-3.79.09-6.47.27-8.04.18-1.57.74-3.01,1.68-4.32.94-1.3,2.21-2.3,3.81-3,1.6-.7,3.46-1.05,5.59-1.05,2.02,0,3.83.33,5.43.99,1.61.66,2.9,1.65,3.88,2.97.98,1.32,1.56,2.75,1.75,4.31.19,1.55.28,4.27.28,8.15v6.45ZM226.32,183.2c0-1.75-.1-2.87-.29-3.36-.19-.49-.59-.73-1.2-.73-.51,0-.9.2-1.18.59-.27.4-.41,1.56-.41,3.5v17.59c0,2.19.09,3.54.27,4.05.18.51.59.77,1.25.77s1.09-.29,1.28-.88c.19-.59.28-1.99.28-4.21v-17.32Z"/>
  <path class="st2" d="M261.65,173.52v37.68h-8.59l-5.1-17.13v17.13h-8.19v-37.68h8.19l5.49,16.97v-16.97h8.19Z"/>
  <path class="st2" d="M287.86,173.52v25.18c0,2.85-.09,4.86-.28,6.02-.19,1.16-.74,2.34-1.65,3.56s-2.12,2.14-3.62,2.77c-1.5.63-3.26.94-5.29.94-2.25,0-4.24-.37-5.96-1.12-1.72-.74-3.01-1.71-3.86-2.91-.85-1.19-1.36-2.46-1.51-3.78-.16-1.33-.23-4.12-.23-8.37v-22.3h9.8v28.25c0,1.64.09,2.7.27,3.15.18.46.54.69,1.08.69.62,0,1.02-.25,1.2-.76.18-.5.27-1.69.27-3.57v-27.76h9.8Z"/>
  <g>
    <path class="st2" d="M6.21,223.75l-2.83,11.97h1.01l.8-3.63h3.11l.81,3.63h1.01l-2.83-11.97h-1.07ZM5.36,231.25l1.37-6.15,1.37,6.15h-2.73Z"/>
    <polygon class="st2" points="22.32 223.59 20.8 223.59 17.34 228.88 17.34 223.59 15.95 223.59 15.95 235.92 17.34 235.92 17.34 230.62 20.83 235.92 22.41 235.92 18.28 229.69 22.32 223.59"/>
    <rect class="st2" x="27.59" y="223.59" width="1.39" height="12.33"/>
    <polygon class="st2" points="37.02 223.59 35.63 223.59 35.63 235.92 40.74 235.92 40.74 234.61 37.02 234.61 37.02 223.59"/>
    <polygon class="st2" points="47.57 223.59 46.18 223.59 46.18 235.92 51.29 235.92 51.29 234.61 47.57 234.61 47.57 223.59"/>
    <rect class="st2" x="56.75" y="223.59" width="1.39" height="12.33"/>
    <path class="st2" d="M77.18,229.5l-2.53-1c-.38-.16-.61-.53-.61-.95v-1.78c0-.58.43-1.08.93-1.08h1.22c.52,0,.93.47.93,1.08v1.63h1.39v-1.76c0-1.27-.96-2.26-2.18-2.26h-1.53c-1.21,0-2.16.99-2.16,2.26v2.04c0,.86.54,1.66,1.35,1.99l2.56,1.01c.36.15.61.52.61.92v2.1c0,.57-.43,1.08-.93,1.08h-1.3c-.52,0-.95-.48-.95-1.08v-1.61h-1.37v1.74c0,1.25.97,2.26,2.16,2.26h1.62c1.2,0,2.18-1.01,2.18-2.26v-2.37c0-.85-.54-1.62-1.37-1.95Z"/>
    <path class="st2" d="M89.49,233.7c0,.62-.41,1.08-.97,1.08h-1.45c-.55,0-.97-.46-.97-1.08v-10.11h-1.39v10.24c0,1.27.97,2.26,2.2,2.26h1.78c1.25,0,2.2-.97,2.2-2.26v-10.24h-1.39v10.11Z"/>
    <polygon class="st2" points="98.81 223.59 97.42 223.59 97.42 235.92 102.52 235.92 102.52 234.61 98.81 234.61 98.81 223.59"/>
    <path class="st2" d="M110.04,223.75l-2.83,11.97h1.01l.8-3.63h3.11l.81,3.63h1.01l-2.83-11.97h-1.07ZM109.21,231.25l1.35-6.15,1.37,6.15h-2.72Z"/>
    <polygon class="st2" points="123.51 233.13 121.02 223.59 119.78 223.59 119.78 235.92 121.13 235.92 121.13 228.51 123.04 235.92 123.96 235.92 125.87 228.56 125.87 235.92 127.22 235.92 127.22 223.59 126 223.59 123.51 233.13"/>
    <path class="st2" d="M135.89,223.75l-2.83,11.97h1.01l.8-3.63h3.11l.81,3.63h1.01l-2.83-11.97h-1.07ZM135.04,231.25l1.37-6.15,1.37,6.15h-2.74Z"/>
    <polygon class="st2" points="156.3 233.4 154.2 223.59 152.75 223.59 155.62 235.96 156.99 235.96 159.86 223.59 158.41 223.59 156.3 233.4"/>
    <polygon class="st2" points="166.87 230.34 169.77 230.34 169.77 229.07 166.87 229.07 166.87 224.9 170.63 224.9 170.63 223.59 165.48 223.59 165.48 235.92 170.74 235.92 170.74 234.61 166.87 234.61 166.87 230.34"/>
    <path class="st2" d="M188.71,229.5l-2.53-1c-.38-.16-.61-.53-.61-.95v-1.78c0-.58.43-1.08.93-1.08h1.22c.52,0,.93.47.93,1.08v1.63h1.39v-1.76c0-1.27-.96-2.26-2.18-2.26h-1.53c-1.21,0-2.16.99-2.16,2.26v2.04c0,.86.54,1.66,1.35,1.99l2.56,1.01c.36.15.61.52.61.92v2.1c0,.57-.43,1.08-.93,1.08h-1.3c-.52,0-.95-.48-.95-1.08v-1.61h-1.37v1.74c0,1.25.97,2.26,2.16,2.26h1.62c1.2,0,2.18-1.01,2.18-2.26v-2.37c0-.85-.54-1.62-1.37-1.95Z"/>
    <path class="st2" d="M201.02,233.7c0,.62-.41,1.08-.97,1.08h-1.45c-.55,0-.97-.46-.97-1.08v-10.11h-1.39v10.24c0,1.27.97,2.26,2.2,2.26h1.78c1.25,0,2.2-.97,2.2-2.26v-10.24h-1.39v10.11Z"/>
    <polygon class="st2" points="219.63 233.4 217.52 223.59 216.07 223.59 218.94 235.96 220.31 235.96 223.18 223.59 221.73 223.59 219.63 233.4"/>
    <polygon class="st2" points="230.19 230.34 233.09 230.34 233.09 229.07 230.19 229.07 230.19 224.9 233.95 224.9 233.95 223.59 228.8 223.59 228.8 235.92 234.06 235.92 234.06 234.61 230.19 234.61 230.19 230.34"/>
    <path class="st2" d="M242.96,230.85c1.11,0,1.99-.93,1.99-1.97v-3.09c0-1.09-.88-1.99-1.99-1.99h-3.11v11.92h.98v-4.87h1.04l2.49,4.87h1.11l-2.56-4.87h.05ZM240.83,230.03v-5.4h1.95c.65,0,1.17.6,1.17,1.22v2.96c0,.6-.52,1.22-1.17,1.22h-1.95Z"/>
    <rect class="st2" x="251.34" y="223.59" width="1.38" height="1.46"/>
    <rect class="st2" x="251.34" y="225.38" width="1.38" height="10.53"/>
    <polygon class="st2" points="263.1 233.13 260.61 223.59 259.37 223.59 259.37 235.92 260.72 235.92 260.72 228.5 262.64 235.92 263.55 235.92 265.45 228.57 265.45 235.92 266.81 235.92 266.81 223.59 265.58 223.59 263.1 233.13"/>
    <polygon class="st2" points="274.8 223.59 273.4 223.59 273.4 235.92 278.51 235.92 278.51 234.61 274.8 234.61 274.8 223.59"/>
    <rect class="st2" x="283.98" y="223.59" width="1.4" height="1.46"/>
    <rect class="st2" x="283.98" y="225.38" width="1.4" height="10.53"/>
    <polygon class="st2" points="293.41 223.59 292.02 223.59 292.02 235.92 297.12 235.92 297.12 234.61 293.41 234.61 293.41 223.59"/>
    <rect class="st2" x="302.59" y="223.59" width="1.4" height="1.46"/>
    <rect class="st2" x="302.59" y="225.38" width="1.4" height="10.53"/>
    <path class="st2" d="M314.4,223.38h-1.68c-.9,0-1.72.56-2.04,1.39-.11.24-.17.51-.17.8v8.38c0,1.18,1.01,2.17,2.21,2.17h1.68c1.21,0,2.19-.98,2.19-2.19v-3.72h-2.95v1.24h1.56v2.35c0,.55-.44,1.02-.97,1.02h-1.35c-.51,0-.97-.48-.97-1.02v-8.13s.02-.08.02-.08c.01-.21.1-.41.27-.61.19-.2.43-.31.68-.31h1.35c.27,0,.51.11.68.31.17.18.26.38.29.6v1.93h1.38v-1.95c0-.27-.05-.55-.14-.79-.33-.85-1.13-1.4-2.04-1.4Z"/>
    <rect class="st2" x="322.71" y="223.59" width="1.4" height="1.46"/>
    <rect class="st2" x="322.71" y="225.38" width="1.4" height="10.53"/>
  </g>
  <rect class="st2" x="312.15" y="221.91" width="3.06" height="1.13"/>
</svg>